P3
50 10
255
255 255   0   254 250   3   253 245   5   252 240   8   251 235  10   249 229  13   248 224  15   247 219  18   246 214  20   245 209  23   244 204  25   243 199  28   242 194  30   241 189  33   240 184  35   238 178  38   237 173  40   236 168  43   235 163  45   234 158  48   233 153  50   232 148  53   231 143  55   230 138  58   229 133  60   227 127  63   226 122  65   225 117  68   224 112  70   223 107  73   222 102  75   221  97  78   220  92  80   219  87  83   218  82  85   216  76  88   215  71  90   214  66  93   213  61  95   212  56  98   211  51 100   210  46 103   209  41 105   208  36 108   207  31 110   205  25 113   204  20 115   203  15 118   202  10 120   201   5 123   
255 255   0   254 250   3   253 245   5   252 240   8   251 235  10   249 229  13   248 224  15   247 219  18   246 214  20   245 209  23   244 204  25   243 199  28   242 194  30   241 189  33   240 184  35   238 178  38   237 173  40   236 168  43   235 163  45   234 158  48   233 153  50   232 148  53   231 143  55   230 138  58   229 133  60   227 127  63   226 122  65   225 117  68   224 112  70   223 107  73   222 102  75   221  97  78   220  92  80   219  87  83   218  82  85   216  76  88   215  71  90   214  66  93   213  61  95   212  56  98   211  51 100   210  46 103   209  41 105   208  36 108   207  31 110   205  25 113   204  20 115   203  15 118   202  10 120   201   5 123   
255 255   0   254 250   3   253 245   5   252 240   8   251 235  10   249 229  13   248 224  15   247 219  18   246 214  20   245 209  23   244 204  25   243 199  28   242 194  30   241 189  33   240 184  35   238 178  38   237 173  40   236 168  43   235 163  45   234 158  48   233 153  50   232 148  53   231 143  55   230 138  58   229 133  60   227 127  63   226 122  65   225 117  68   224 112  70   223 107  73   222 102  75   221  97  78   220  92  80   219  87  83   218  82  85   216  76  88   215  71  90   214  66  93   213  61  95   212  56  98   211  51 100   210  46 103   209  41 105   208  36 108   207  31 110   205  25 113   204  20 115   203  15 118   202  10 120   201   5 123   
255 255   0   254 250   3   253 245   5   252 240   8   251 235  10   249 229  13   248 224  15   247 219  18   246 214  20   245 209  23   244 204  25   243 199  28   242 194  30   241 189  33   240 184  35   238 178  38   237 173  40   236 168  43   235 163  45   234 158  48   233 153  50   232 148  53   231 143  55   230 138  58   229 133  60   227 127  63   226 122  65   225 117  68   224 112  70   223 107  73   222 102  75   221  97  78   220  92  80   219  87  83   218  82  85   216  76  88   215  71  90   214  66  93   213  61  95   212  56  98   211  51 100   210  46 103   209  41 105   208  36 108   207  31 110   205  25 113   204  20 115   203  15 118   202  10 120   201   5 123   
255 255   0   254 250   3   253 245   5   252 240   8   251 235  10   249 229  13   248 224  15   247 219  18   246 214  20   245 209  23   244 204  25   243 199  28   242 194  30   241 189  33   240 184  35   238 178  38   237 173  40   236 168  43   235 163  45   234 158  48   233 153  50   232 148  53   231 143  55   230 138  58   229 133  60   227 127  63   226 122  65   225 117  68   224 112  70   223 107  73   222 102  75   221  97  78   220  92  80   219  87  83   218  82  85   216  76  88   215  71  90   214  66  93   213  61  95   212  56  98   211  51 100   210  46 103   209  41 105   208  36 108   207  31 110   205  25 113   204  20 115   203  15 118   202  10 120   201   5 123   
255 255   0   254 250   3   253 245   5   252 240   8   251 235  10   249 229  13   248 224  15   247 219  18   246 214  20   245 209  23   244 204  25   243 199  28   242 194  30   241 189  33   240 184  35   238 178  38   237 173  40   236 168  43   235 163  45   234 158  48   233 153  50   232 148  53   231 143  55   230 138  58   229 133  60   227 127  63   226 122  65   225 117  68   224 112  70   223 107  73   222 102  75   221  97  78   220  92  80   219  87  83   218  82  85   216  76  88   215  71  90   214  66  93   213  61  95   212  56  98   211  51 100   210  46 103   209  41 105   208  36 108   207  31 110   205  25 113   204  20 115   203  15 118   202  10 120   201   5 123   
255 255   0   254 250   3   253 245   5   252 240   8   251 235  10   249 229  13   248 224  15   247 219  18   246 214  20   245 209  23   244 204  25   243 199  28   242 194  30   241 189  33   240 184  35   238 178  38   237 173  40   236 168  43   235 163  45   234 158  48   233 153  50   232 148  53   231 143  55   230 138  58   229 133  60   227 127  63   226 122  65   225 117  68   224 112  70   223 107  73   222 102  75   221  97  78   220  92  80   219  87  83   218  82  85   216  76  88   215  71  90   214  66  93   213  61  95   212  56  98   211  51 100   210  46 103   209  41 105   208  36 108   207  31 110   205  25 113   204  20 115   203  15 118   202  10 120   201   5 123   
255 255   0   254 250   3   253 245   5   252 240   8   251 235  10   249 229  13   248 224  15   247 219  18   246 214  20   245 209  23   244 204  25   243 199  28   242 194  30   241 189  33   240 184  35   238 178  38   237 173  40   236 168  43   235 163  45   234 158  48   233 153  50   232 148  53   231 143  55   230 138  58   229 133  60   227 127  63   226 122  65   225 117  68   224 112  70   223 107  73   222 102  75   221  97  78   220  92  80   219  87  83   218  82  85   216  76  88   215  71  90   214  66  93   213  61  95   212  56  98   211  51 100   210  46 103   209  41 105   208  36 108   207  31 110   205  25 113   204  20 115   203  15 118   202  10 120   201   5 123   
255 255   0   254 250   3   253 245   5   252 240   8   251 235  10   249 229  13   248 224  15   247 219  18   246 214  20   245 209  23   244 204  25   243 199  28   242 194  30   241 189  33   240 184  35   238 178  38   237 173  40   236 168  43   235 163  45   234 158  48   233 153  50   232 148  53   231 143  55   230 138  58   229 133  60   227 127  63   226 122  65   225 117  68   224 112  70   223 107  73   222 102  75   221  97  78   220  92  80   219  87  83   218  82  85   216  76  88   215  71  90   214  66  93   213  61  95   212  56  98   211  51 100   210  46 103   209  41 105   208  36 108   207  31 110   205  25 113   204  20 115   203  15 118   202  10 120   201   5 123   
255 255   0   254 250   3   253 245   5   252 240   8   251 235  10   249 229  13   248 224  15   247 219  18   246 214  20   245 209  23   244 204  25   243 199  28   242 194  30   241 189  33   240 184  35   238 178  38   237 173  40   236 168  43   235 163  45   234 158  48   233 153  50   232 148  53   231 143  55   230 138  58   229 133  60   227 127  63   226 122  65   225 117  68   224 112  70   223 107  73   222 102  75   221  97  78   220  92  80   219  87  83   218  82  85   216  76  88   215  71  90   214  66  93   213  61  95   212  56  98   211  51 100   210  46 103   209  41 105   208  36 108   207  31 110   205  25 113   204  20 115   203  15 118   202  10 120   201   5 123   
