P3
50 10
255
255 255   0   253 249   2   252 244   5   251 239   7   250 234  10   249 229  12   248 224  15   247 219  17   246 214  20   245 209  22   243 203  25   242 198  27   241 193  30   240 188  32   239 183  35   238 178  37   237 173  40   236 168  42   235 163  45   234 158  47   232 152  50   231 147  52   230 142  55   229 137  57   228 132  60   227 127  62   226 122  65   225 117  67   224 112  70   223 107  72   221 101  75   220  96  77   219  91  80   218  86  82   217  81  85   216  76  87   215  71  90   214  66  92   213  61  95   212  56  97   210  50 100   209  45 102   208  40 105   207  35 107   206  30 110   205  25 112   204  20 115   203  15 117   202  10 120   201   5 122   
255 255   0   253 249   2   252 244   5   251 239   7   250 234  10   249 229  12   248 224  15   247 219  17   246 214  20   245 209  22   243 203  25   242 198  27   241 193  30   240 188  32   239 183  35   238 178  37   237 173  40   236 168  42   235 163  45   234 158  47   232 152  50   231 147  52   230 142  55   229 137  57   228 132  60   227 127  62   226 122  65   225 117  67   224 112  70   223 107  72   221 101  75   220  96  77   219  91  80   218  86  82   217  81  85   216  76  87   215  71  90   214  66  92   213  61  95   212  56  97   210  50 100   209  45 102   208  40 105   207  35 107   206  30 110   205  25 112   204  20 115   203  15 117   202  10 120   201   5 122   
255 255   0   253 249   2   252 244   5   251 239   7   250 234  10   249 229  12   248 224  15   247 219  17   246 214  20   245 209  22   243 203  25   242 198  27   241 193  30   240 188  32   239 183  35   238 178  37   237 173  40   236 168  42   235 163  45   234 158  47   232 152  50   231 147  52   230 142  55   229 137  57   228 132  60   227 127  62   226 122  65   225 117  67   224 112  70   223 107  72   221 101  75   220  96  77   219  91  80   218  86  82   217  81  85   216  76  87   215  71  90   214  66  92   213  61  95   212  56  97   210  50 100   209  45 102   208  40 105   207  35 107   206  30 110   205  25 112   204  20 115   203  15 117   202  10 120   201   5 122   
255 255   0   253 249   2   252 244   5   251 239   7   250 234  10   249 229  12   248 224  15   247 219  17   246 214  20   245 209  22   243 203  25   242 198  27   241 193  30   240 188  32   239 183  35   238 178  37   237 173  40   236 168  42   235 163  45   234 158  47   232 152  50   231 147  52   230 142  55   229 137  57   228 132  60   227 127  62   226 122  65   225 117  67   224 112  70   223 107  72   221 101  75   220  96  77   219  91  80   218  86  82   217  81  85   216  76  87   215  71  90   214  66  92   213  61  95   212  56  97   210  50 100   209  45 102   208  40 105   207  35 107   206  30 110   205  25 112   204  20 115   203  15 117   202  10 120   201   5 122   
255 255   0   253 249   2   252 244   5   251 239   7   250 234  10   249 229  12   248 224  15   247 219  17   246 214  20   245 209  22   243 203  25   242 198  27   241 193  30   240 188  32   239 183  35   238 178  37   237 173  40   236 168  42   235 163  45   234 158  47   232 152  50   231 147  52   230 142  55   229 137  57   228 132  60   227 127  62   226 122  65   225 117  67   224 112  70   223 107  72   221 101  75   220  96  77   219  91  80   218  86  82   217  81  85   216  76  87   215  71  90   214  66  92   213  61  95   212  56  97   210  50 100   209  45 102   208  40 105   207  35 107   206  30 110   205  25 112   204  20 115   203  15 117   202  10 120   201   5 122   
255 255   0   253 249   2   252 244   5   251 239   7   250 234  10   249 229  12   248 224  15   247 219  17   246 214  20   245 209  22   243 203  25   242 198  27   241 193  30   240 188  32   239 183  35   238 178  37   237 173  40   236 168  42   235 163  45   234 158  47   232 152  50   231 147  52   230 142  55   229 137  57   228 132  60   227 127  62   226 122  65   225 117  67   224 112  70   223 107  72   221 101  75   220  96  77   219  91  80   218  86  82   217  81  85   216  76  87   215  71  90   214  66  92   213  61  95   212  56  97   210  50 100   209  45 102   208  40 105   207  35 107   206  30 110   205  25 112   204  20 115   203  15 117   202  10 120   201   5 122   
255 255   0   253 249   2   252 244   5   251 239   7   250 234  10   249 229  12   248 224  15   247 219  17   246 214  20   245 209  22   243 203  25   242 198  27   241 193  30   240 188  32   239 183  35   238 178  37   237 173  40   236 168  42   235 163  45   234 158  47   232 152  50   231 147  52   230 142  55   229 137  57   228 132  60   227 127  62   226 122  65   225 117  67   224 112  70   223 107  72   221 101  75   220  96  77   219  91  80   218  86  82   217  81  85   216  76  87   215  71  90   214  66  92   213  61  95   212  56  97   210  50 100   209  45 102   208  40 105   207  35 107   206  30 110   205  25 112   204  20 115   203  15 117   202  10 120   201   5 122   
255 255   0   253 249   2   252 244   5   251 239   7   250 234  10   249 229  12   248 224  15   247 219  17   246 214  20   245 209  22   243 203  25   242 198  27   241 193  30   240 188  32   239 183  35   238 178  37   237 173  40   236 168  42   235 163  45   234 158  47   232 152  50   231 147  52   230 142  55   229 137  57   228 132  60   227 127  62   226 122  65   225 117  67   224 112  70   223 107  72   221 101  75   220  96  77   219  91  80   218  86  82   217  81  85   216  76  87   215  71  90   214  66  92   213  61  95   212  56  97   210  50 100   209  45 102   208  40 105   207  35 107   206  30 110   205  25 112   204  20 115   203  15 117   202  10 120   201   5 122   
255 255   0   253 249   2   252 244   5   251 239   7   250 234  10   249 229  12   248 224  15   247 219  17   246 214  20   245 209  22   243 203  25   242 198  27   241 193  30   240 188  32   239 183  35   238 178  37   237 173  40   236 168  42   235 163  45   234 158  47   232 152  50   231 147  52   230 142  55   229 137  57   228 132  60   227 127  62   226 122  65   225 117  67   224 112  70   223 107  72   221 101  75   220  96  77   219  91  80   218  86  82   217  81  85   216  76  87   215  71  90   214  66  92   213  61  95   212  56  97   210  50 100   209  45 102   208  40 105   207  35 107   206  30 110   205  25 112   204  20 115   203  15 117   202  10 120   201   5 122   
255 255   0   253 249   2   252 244   5   251 239   7   250 234  10   249 229  12   248 224  15   247 219  17   246 214  20   245 209  22   243 203  25   242 198  27   241 193  30   240 188  32   239 183  35   238 178  37   237 173  40   236 168  42   235 163  45   234 158  47   232 152  50   231 147  52   230 142  55   229 137  57   228 132  60   227 127  62   226 122  65   225 117  67   224 112  70   223 107  72   221 101  75   220  96  77   219  91  80   218  86  82   217  81  85   216  76  87   215  71  90   214  66  92   213  61  95   212  56  97   210  50 100   209  45 102   208  40 105   207  35 107   206  30 110   205  25 112   204  20 115   203  15 117   202  10 120   201   5 122   
